<svg width="32" height="21" viewBox="0 0 32 21" fill="none" xmlns="http://www.w3.org/2000/svg">
<path d="M16.3056 4.40618C13.0621 3.83845 12.605 0.810006 15.654 0.0893727C17.7782 -0.412406 19.8795 1.31259 18.5016 2.42733C17.5122 3.22764 16.1778 3.36197 15.3571 2.7439C14.7413 2.28008 15.2426 1.33467 16.1376 1.27167C16.9564 1.21434 16.9855 1.97454 16.1722 2.17886L15.9527 2.23405L16.1118 2.37214C17.2238 3.33828 18.8382 2.11856 17.7984 1.09778C16.5001 -0.176591 14.4385 0.286962 14.4216 1.85717C14.4039 3.46561 16.5903 4.4837 18.8754 3.93105C20.2655 3.59482 21.0224 3.15227 22.7841 1.64424C23.8744 0.711212 24.6221 0.391409 26.1495 0.204857C27.537 0.0352649 29.873 0.551044 31.308 1.34409C32.1809 1.82622 31.8704 1.96943 30.9194 1.52337C28.8328 0.545122 26.4792 0.361531 24.7396 1.04071C24.1403 1.27464 23.5639 1.62567 22.5296 2.38668C20.208 4.09391 18.2154 4.74052 16.3056 4.40618Z" fill="url(#paint0_linear_950_769)"/>
<path d="M0 0.681061C0 0.604341 0.457097 0.362877 0.76723 0.275389C1.10609 0.180094 13.5763 0.131366 13.6554 0.225046C13.7048 0.283461 13.3431 0.494243 12.9836 0.616996L12.6768 0.72171L6.33821 0.722248C2.48512 0.722517 0 0.706366 0 0.681061Z" fill="url(#paint1_linear_950_769)"/>
<path d="M19.5344 0.637455C19.2356 0.525201 19.0051 0.342417 19.0515 0.253853C19.0935 0.173902 23.656 0.145634 23.723 0.225046C23.7723 0.283461 23.411 0.494243 23.0512 0.616996C22.6187 0.764783 19.9159 0.780398 19.5344 0.637455Z" fill="url(#paint2_linear_950_769)"/>
<path d="M23.5374 5.23771C22.9038 3.54933 24.4818 1.42431 26.6597 1.03317C27.8067 0.827238 30.2317 1.30183 31.262 1.93389C31.7518 2.23458 31.5728 2.2615 30.7835 2.00604C28.189 1.16615 25.5731 1.47949 24.7167 2.73259C23.8228 4.04007 23.9808 5.24579 25.1875 6.33011C27.7805 8.66106 32.4321 6.95383 30.6734 4.3168C29.603 2.71241 26.3875 2.92157 27.1278 4.5475C27.2125 4.73352 27.2199 4.73594 27.487 4.6681C28.1982 4.48666 29.0472 5.21618 28.6041 5.62778C27.9507 6.23508 26.3356 5.3322 26.3356 4.3596C26.3356 2.67229 29.3179 2.20793 30.9736 3.63762C32.2734 4.76016 32.0321 6.07249 30.3459 7.05209C27.7418 8.56442 24.4574 7.68927 23.5374 5.23771Z" fill="url(#paint3_linear_950_769)"/>
<path d="M5.52494 1.66497C1.19007 1.64747 0.00994483 1.63078 0.153593 1.58986C0.465937 1.50076 11.16 1.50938 11.6318 1.59929C12.4838 1.76134 13.4518 2.55008 12.97 2.68925C12.5118 2.8217 12.4853 2.81577 12.3 2.53931C12.0713 2.1977 11.7254 1.91936 11.3714 1.79203L11.0805 1.68731L5.52494 1.66497Z" fill="url(#paint4_linear_950_769)"/>
<path d="M31.1238 7.50003L31.3235 7.45911C31.5356 7.4155 31.7802 7.4365 31.9065 7.50918C32.0561 7.59505 32.0145 20.897 31.8645 20.9554C31.6918 21.023 31.417 21.0125 31.2601 20.9323L31.1238 20.8623V14.1812V7.50003Z" fill="url(#paint5_linear_950_769)"/>
<path d="M29.0564 8.54638C28.8814 8.41825 28.7551 8.30142 28.775 8.28688C29.0634 8.0761 29.8351 8.72002 30.0991 9.39192C30.2848 9.8649 30.347 20.802 30.1643 20.8994C29.8848 21.0491 29.8962 21.2798 29.8962 15.4722C29.8962 8.93645 29.926 9.18357 29.0564 8.54638Z" fill="url(#paint6_linear_950_769)"/>
<defs>
<linearGradient id="paint0_linear_950_769" x1="16" y1="0.129636" x2="16" y2="21.1296" gradientUnits="userSpaceOnUse">
<stop stop-color="#EDE8A2"/>
<stop offset="1" stop-color="#998663"/>
</linearGradient>
<linearGradient id="paint1_linear_950_769" x1="16" y1="0.129636" x2="16" y2="21.1296" gradientUnits="userSpaceOnUse">
<stop stop-color="#EDE8A2"/>
<stop offset="1" stop-color="#998663"/>
</linearGradient>
<linearGradient id="paint2_linear_950_769" x1="16" y1="0.129636" x2="16" y2="21.1296" gradientUnits="userSpaceOnUse">
<stop stop-color="#EDE8A2"/>
<stop offset="1" stop-color="#998663"/>
</linearGradient>
<linearGradient id="paint3_linear_950_769" x1="16" y1="0.129636" x2="16" y2="21.1296" gradientUnits="userSpaceOnUse">
<stop stop-color="#EDE8A2"/>
<stop offset="1" stop-color="#998663"/>
</linearGradient>
<linearGradient id="paint4_linear_950_769" x1="16" y1="0.129636" x2="16" y2="21.1296" gradientUnits="userSpaceOnUse">
<stop stop-color="#EDE8A2"/>
<stop offset="1" stop-color="#998663"/>
</linearGradient>
<linearGradient id="paint5_linear_950_769" x1="16" y1="0.129636" x2="16" y2="21.1296" gradientUnits="userSpaceOnUse">
<stop stop-color="#EDE8A2"/>
<stop offset="1" stop-color="#998663"/>
</linearGradient>
<linearGradient id="paint6_linear_950_769" x1="16" y1="0.129636" x2="16" y2="21.1296" gradientUnits="userSpaceOnUse">
<stop stop-color="#EDE8A2"/>
<stop offset="1" stop-color="#998663"/>
</linearGradient>
</defs>
</svg>
